# xmcd CD database file
#
# Track frame offsets:
#	150
#	16550
#	28898
#	42410
#	56937
#	63218
#	76342
#	92521
#	106111
#	110179
#	125117
#	141517
#
# Disc length: 2103 seconds
#
# Revision: 0
# Processed by: cddbd v1.5.2PL0 Copyright (c) Steve Scherf et al.
# Submitted via: Feurio! 1.68 - http://www.feurio.com
#
DISCID=a508350c
DTITLE=Bob Lenox - Opening Act
DYEAR=1900
DGENRE=Blues Rock
TTITLE0=American Coast
TTITLE1=Lenox Party
TTITLE2=Colorblind
TTITLE3=Homeless
TTITLE4=Cargoes of Ivory
TTITLE5=Toy Boy
TTITLE6=Why
TTITLE7=All I've Got
TTITLE8=Welcome to Paradise
TTITLE9=Stand
TTITLE10=French Coast
TTITLE11=Homeless remix by Mooders
EXTD=
EXTT0=
EXTT1=
EXTT2=
EXTT3=
EXTT4=
EXTT5=
EXTT6=
EXTT7=
EXTT8=
EXTT9=
EXTT10=
EXTT11=
PLAYORDER=
